<?xml version="1.0" encoding="UTF-8" standalone="no"?>
<svg
   xmlns:dc="http://purl.org/dc/elements/1.1/"
   xmlns:cc="http://creativecommons.org/ns#"
   xmlns:rdf="http://www.w3.org/1999/02/22-rdf-syntax-ns#"
   xmlns:svg="http://www.w3.org/2000/svg"
   xmlns="http://www.w3.org/2000/svg"
   xmlns:sodipodi="http://sodipodi.sourceforge.net/DTD/sodipodi-0.dtd"
   xmlns:inkscape="http://www.inkscape.org/namespaces/inkscape"
   id="svg8"
   version="1.1"
   viewBox="0 0 119.92636 119.92635"
   height="119.92635mm"
   width="119.92635mm"
   sodipodi:docname="icon.svg"
   inkscape:version="0.92.0 r">
  <metadata
     id="metadata4493">
    <rdf:RDF>
      <cc:Work
         rdf:about="">
        <dc:format>image/svg+xml</dc:format>
        <dc:type
           rdf:resource="http://purl.org/dc/dcmitype/StillImage" />
        <dc:title></dc:title>
      </cc:Work>
    </rdf:RDF>
  </metadata>
  <defs
     id="defs4491" />
  <sodipodi:namedview
     pagecolor="#ffffff"
     bordercolor="#666666"
     borderopacity="1"
     objecttolerance="10"
     gridtolerance="10"
     guidetolerance="10"
     inkscape:pageopacity="0"
     inkscape:pageshadow="2"
     inkscape:window-width="1364"
     inkscape:window-height="694"
     id="namedview4489"
     showgrid="false"
     inkscape:zoom="0.57024212"
     inkscape:cx="525.58515"
     inkscape:cy="260.47586"
     inkscape:window-x="0"
     inkscape:window-y="54"
     inkscape:window-maximized="0"
     inkscape:current-layer="svg8" />
  <path
     inkscape:connector-curvature="0"
     style="color:#000000;display:inline;overflow:visible;visibility:visible;opacity:1;fill:#c00032;fill-opacity:1;fill-rule:nonzero;stroke:none;stroke-width:1.16979313;stroke-linecap:round;stroke-linejoin:round;stroke-miterlimit:4;stroke-dasharray:none;stroke-dashoffset:0;stroke-opacity:1;marker:none;enable-background:accumulate"
     d="M -4.6818316e-6,-5.564372e-6 H 119.92636 V 119.92636 H -4.6818316e-6 Z"
     id="rect4599" />
  <path
     style="fill:#ffffff;fill-opacity:1;fill-rule:evenodd;stroke:none;stroke-width:0.26458335px;stroke-linecap:butt;stroke-linejoin:miter;stroke-opacity:1"
     d="m 58.48541,19.452369 c -0.0648,0.0013 -0.10181,0.0057 -0.10181,0.0057 H 35.55709 c -3.2873,0 -3.44062,2.319755 -3.44062,2.319755 v 6.495728 c 0,2.087925 3.44062,2.371947 3.44062,2.371947 h 6.76703 v 6.610967 H 32.3485 c 0,0 -5.168677,0.260323 -5.168677,4.640027 0,4.871834 -2.718697,39.206393 -2.718697,39.206393 H 95.45059 L 91.73868,41.896494 c 0,0 -0.98439,-4.640027 -7.65587,-4.640027 H 51.8362 V 30.6455 h 6.5474 c 2.13968,0 2.37144,-2.371952 2.37144,-2.371947 v -5.823418 c 0,-2.862787 -1.81567,-3.006541 -2.26963,-2.99775 z m 3.85661,27.019022 c 2.05587,0 3.66888,0.853083 4.83898,2.559019 1.1701,1.705938 1.75493,4.045791 1.75493,7.020242 0,2.996325 -0.61232,5.358583 -1.8371,7.086392 -1.21385,1.71687 -2.86502,2.575036 -4.9537,2.575036 -0.94046,0 -1.78285,-0.152694 -2.52646,-0.458888 -0.74362,-0.317127 -1.48165,-0.880592 -2.21433,-1.68982 h -0.29508 c 0.19684,1.301324 0.29508,2.110632 0.29508,2.427761 v 7.463626 H 50.99077 V 46.799538 h 5.21622 l 0.90227,2.362129 h 0.29508 c 1.19197,-1.79342 2.83806,-2.690276 4.93768,-2.690276 z m -2.34611,5.035871 c -0.94045,0 -1.60163,0.338992 -1.98438,1.016992 -0.37181,0.667065 -0.57439,1.662152 -0.60719,2.985347 v 0.508497 c 0,1.596581 0.21326,2.749963 0.63975,3.460769 0.42648,0.710808 1.09887,1.066601 2.01745,1.066601 0.82017,0 1.41619,-0.350192 1.788,-1.050065 0.37181,-0.710806 0.55811,-1.880992 0.55811,-3.510378 0,-1.596583 -0.1863,-2.739281 -0.55811,-3.428217 -0.37181,-0.69987 -0.98973,-1.049546 -1.85363,-1.049546 z M 24.461126,84.814791 V 97.34219 c 0,3.1319 2.15284,3.13212 2.15284,3.13212 H 92.4854 c 3.36389,0 2.96519,-3.015846 2.96519,-3.015846 V 84.814791 Z m 35.378724,7.53959 c 1.40928,7.4e-5 2.55171,1.142503 2.55178,2.551782 2.1e-4,1.409481 -1.1423,2.552227 -2.55178,2.552301 -1.40968,2.14e-4 -2.55251,-1.142617 -2.5523,-2.552301 7e-5,-1.409483 1.14282,-2.551996 2.5523,-2.551782 z"
     id="path4581"
     inkscape:connector-curvature="0" />
</svg>
